<svg width="68" height="60" viewBox="0 0 68 60" fill="none" xmlns="http://www.w3.org/2000/svg">
<path d="M33.9997 31.758L46.7287 44.484L42.4837 48.729L36.9997 43.245V60H30.9997V43.239L25.5157 48.729L21.2707 44.484L33.9997 31.758ZM33.9997 6.66481e-08C39.1506 0.00024531 44.1219 1.89334 47.9683 5.31936C51.8147 8.74537 54.2679 13.4654 54.8617 18.582C58.5945 19.6 61.8509 21.8973 64.0617 25.0726C66.2725 28.2479 67.2971 32.0991 66.9565 35.9532C66.6159 39.8073 64.9318 43.4191 62.1984 46.1574C59.465 48.8958 55.8562 50.5865 52.0027 50.934V44.892C53.3832 44.6948 54.7106 44.2247 55.9074 43.5089C57.1043 42.7932 58.1465 41.8462 58.9734 40.7232C59.8002 39.6003 60.3951 38.3239 60.7233 36.9685C61.0515 35.6132 61.1064 34.206 60.8848 32.8292C60.6633 31.4524 60.1697 30.1335 59.4328 28.9495C58.696 27.7656 57.7307 26.7403 56.5933 25.9334C55.4559 25.1266 54.1692 24.5544 52.8082 24.2502C51.4473 23.9461 50.0394 23.9161 48.6667 24.162C49.1365 21.9747 49.1111 19.7099 48.5923 17.5337C48.0736 15.3574 47.0746 13.3248 45.6685 11.5846C44.2624 9.84442 42.4849 8.44082 40.4661 7.47658C38.4473 6.51235 36.2384 6.0119 34.0012 6.0119C31.7639 6.0119 29.555 6.51235 27.5363 7.47658C25.5175 8.44082 23.74 9.84442 22.3339 11.5846C20.9278 13.3248 19.9288 15.3574 19.41 17.5337C18.8913 19.7099 18.8659 21.9747 19.3357 24.162C16.5986 23.648 13.7695 24.2424 11.4707 25.8143C9.17189 27.3862 7.59167 29.807 7.07768 32.544C6.56369 35.281 7.15804 38.1101 8.72997 40.409C10.3019 42.7078 12.7227 44.288 15.4597 44.802L15.9997 44.892V50.934C12.146 50.587 8.5369 48.8967 5.80308 46.1586C3.06927 43.4205 1.38466 39.8087 1.0437 35.9545C0.702746 32.1003 1.72712 28.2489 3.93779 25.0733C6.14846 21.8978 9.4048 19.6002 13.1377 18.582C13.7308 13.4651 16.1839 8.74473 20.0304 5.3186C23.8769 1.89246 28.8486 -0.000410108 33.9997 6.66481e-08V6.66481e-08Z" fill="#03053D"/>
</svg>
