<svg width="18" height="18" viewBox="0 0 18 18" fill="none" xmlns="http://www.w3.org/2000/svg">
<path fill-rule="evenodd" clip-rule="evenodd" d="M0.299988 8.11111C0.299988 3.79716 3.79714 0.300003 8.1111 0.300003C12.4251 0.300003 15.9222 3.79716 15.9222 8.11111C15.9222 12.4251 12.4251 15.9222 8.1111 15.9222C3.79714 15.9222 0.299988 12.4251 0.299988 8.11111ZM8.1111 1.7C4.57034 1.7 1.69999 4.57036 1.69999 8.11111C1.69999 11.6519 4.57034 14.5222 8.1111 14.5222C11.6519 14.5222 14.5222 11.6519 14.5222 8.11111C14.5222 4.57036 11.6519 1.7 8.1111 1.7Z" fill="#8D9BA8"/>
<path fill-rule="evenodd" clip-rule="evenodd" d="M12.6383 12.6384C12.9117 12.365 13.3549 12.365 13.6283 12.6384L17.495 16.505C17.7683 16.7784 17.7683 17.2216 17.495 17.495C17.2216 17.7683 16.7784 17.7683 16.505 17.495L12.6383 13.6283C12.365 13.3549 12.365 12.9117 12.6383 12.6384Z" fill="#8D9BA8"/>
</svg>
